<!-- Celebrate / Trophy Icon -->
<svg xmlns="http://www.w3.org/2000/svg" viewBox="0 0 64 64" fill="none">
  <rect width="64" height="64" rx="14" fill="#090D16"/>
  <circle cx="32" cy="28" r="16" stroke="#1E293B" stroke-width="3"/>
  <path d="M 32 12 A 16 16 0 1 1 16 28" stroke="#3FCF8E" stroke-width="3" stroke-linecap="round"/>
  <!-- Trophy cup -->
  <path d="M 24 22 H 40 V 30 C 40 36 36 40 32 40 C 28 40 24 36 24 30 Z" stroke="#38BDF8" stroke-width="2" stroke-linejoin="round"/>
  <!-- Trophy handles -->
  <path d="M 24 24 C 20 24 18 27 18 30 C 18 32 20 34 24 33" stroke="#38BDF8" stroke-width="1.8" stroke-linecap="round"/>
  <path d="M 40 24 C 44 24 46 27 46 30 C 46 32 44 34 40 33" stroke="#38BDF8" stroke-width="1.8" stroke-linecap="round"/>
  <!-- Trophy base -->
  <path d="M 28 40 V 44 H 36 V 40" stroke="#38BDF8" stroke-width="2" stroke-linecap="round" stroke-linejoin="round"/>
  <path d="M 26 44 H 38" stroke="#38BDF8" stroke-width="2" stroke-linecap="round"/>
  <!-- Star on trophy -->
  <path d="M 32 26 l1.2 2.4 2.7.4-2 1.9.5 2.7L32 32.2l-2.4 1.2.5-2.7-2-1.9 2.7-.4z" fill="#F59E0B"/>
</svg>
