<svg viewBox="0 0 320 180" fill="none" xmlns="http://www.w3.org/2000/svg" role="img" aria-label="3D vector space">
  <!-- Grid floor (isometric) -->
  <line x1="40" y1="160" x2="280" y2="160" stroke="#334155" stroke-width="0.8"/>
  <line x1="40" y1="160" x2="100" y2="40" stroke="#334155" stroke-width="0.8"/>
  <line x1="40" y1="160" x2="20" y2="130" stroke="#334155" stroke-width="0.8"/>
  <!-- Grid lines on floor -->
  <line x1="80" y1="160" x2="130" y2="55" stroke="#1E293B" stroke-width="0.5"/>
  <line x1="120" y1="160" x2="160" y2="70" stroke="#1E293B" stroke-width="0.5"/>
  <line x1="160" y1="160" x2="195" y2="85" stroke="#1E293B" stroke-width="0.5"/>
  <line x1="200" y1="160" x2="225" y2="100" stroke="#1E293B" stroke-width="0.5"/>
  <line x1="240" y1="160" x2="255" y2="115" stroke="#1E293B" stroke-width="0.5"/>
  <line x1="60" y1="140" x2="260" y2="140" stroke="#1E293B" stroke-width="0.5"/>
  <line x1="50" y1="120" x2="245" y2="120" stroke="#1E293B" stroke-width="0.5"/>
  <line x1="45" y1="100" x2="230" y2="100" stroke="#1E293B" stroke-width="0.5"/>
  <line x1="42" y1="80" x2="215" y2="80" stroke="#1E293B" stroke-width="0.5"/>
  <!-- Axis labels -->
  <text x="284" y="164" fill="#475569" font-family="ui-monospace,SFMono-Regular,Menlo,monospace" font-size="9">x</text>
  <text x="96" y="36" fill="#475569" font-family="ui-monospace,SFMono-Regular,Menlo,monospace" font-size="9">y</text>
  <text x="12" y="126" fill="#475569" font-family="ui-monospace,SFMono-Regular,Menlo,monospace" font-size="9">z</text>
  <!-- Scattered word dots (dim, background) -->
  <circle cx="100" cy="95" r="3" fill="#475569" opacity="0.3"/>
  <circle cx="140" cy="110" r="3" fill="#475569" opacity="0.3"/>
  <circle cx="180" cy="80" r="3" fill="#475569" opacity="0.3"/>
  <circle cx="220" cy="105" r="3" fill="#475569" opacity="0.3"/>
  <circle cx="90" cy="130" r="3" fill="#475569" opacity="0.3"/>
  <circle cx="200" cy="130" r="3" fill="#475569" opacity="0.3"/>
  <circle cx="250" cy="90" r="3" fill="#475569" opacity="0.3"/>
  <circle cx="70" cy="115" r="3" fill="#475569" opacity="0.3"/>
  <circle cx="160" cy="125" r="3" fill="#475569" opacity="0.3"/>
  <circle cx="230" cy="70" r="3" fill="#475569" opacity="0.3"/>
  <circle cx="110" cy="70" r="3" fill="#475569" opacity="0.3"/>
  <circle cx="190" cy="140" r="3" fill="#475569" opacity="0.3"/>
  <circle cx="260" cy="120" r="3" fill="#475569" opacity="0.3"/>
  <circle cx="60" cy="100" r="3" fill="#475569" opacity="0.3"/>
  <circle cx="150" cy="60" r="3" fill="#475569" opacity="0.3"/>
  <!-- Your word (glowing, prominent) -->
  <circle cx="160" cy="90" r="10" fill="#38BDF8" opacity="0.12"/>
  <circle cx="160" cy="90" r="6" fill="#38BDF8" opacity="0.25"/>
  <circle cx="160" cy="90" r="3.5" fill="#38BDF8"/>
  <text x="160" y="78" fill="#7DD3FC" font-family="ui-sans-serif,system-ui,sans-serif" font-size="10" text-anchor="middle">your word</text>
</svg>
